<svg xmlns="http://www.w3.org/2000/svg" viewBox="0 0 620.94 620.94"><defs><style>.cls-1{fill:#1c1c1c;}.cls-2{fill:#e8e8e8;}.cls-3{fill:#ff8500;}</style></defs><g id="Layer_2" data-name="Layer 2"><g id="Layer_1-2" data-name="Layer 1"><rect class="cls-1" width="620.94" height="620.94" rx="140.94"/><path class="cls-2" d="M382.38,152.53a14,14,0,0,1,13.18,9.29q51.15,143.06,102.31,286.1h0l.26.63-76.85,1.15q-41.7-119-83.39-238.09a14,14,0,0,0-13.21-9.37h-6.1s0,0,0,0H220.08v0h-20.8a5.72,5.72,0,0,1-5.75-5.7V158.3a5.72,5.72,0,0,1,5.75-5.7h6.34v-.07Z"/><path class="cls-3" d="M297.76,300.21a86,86,0,0,0,24.56-81.29,3.16,3.16,0,0,0-3.11-2.42H274.73a3.17,3.17,0,0,0-2.82,4.64,37,37,0,0,1,4,17.21c-.19,20.71-17.65,37.11-38.34,37.11H150.05a1.94,1.94,0,0,1-1.94-1.94V202.46a1.93,1.93,0,0,1,1.94-1.93h23.07a5.56,5.56,0,0,0,5.56-5.56V157.56a5.56,5.56,0,0,0-5.56-5.56h-68a5.56,5.56,0,0,0-5.56,5.56v285.3a5.56,5.56,0,0,0,5.56,5.56h132c43.1,0,79.9-31.83,86.36-73.13a83.43,83.43,0,0,0,1-13.67A85.67,85.67,0,0,0,297.76,300.21Zm-60.23,99.68H150.05a1.94,1.94,0,0,1-1.94-1.94V326.89a1.93,1.93,0,0,1,1.94-1.93h88.41a37.5,37.5,0,0,1,37.43,38.91,35.87,35.87,0,0,1-3.75,14.75A38.67,38.67,0,0,1,237.53,399.89Z"/><path class="cls-2" d="M324.45,361.62a83.43,83.43,0,0,1-1,13.67,215.55,215.55,0,0,1-39.54,3.65q-5.94,0-11.79-.32a35.87,35.87,0,0,0,3.75-14.75A37.5,37.5,0,0,0,238.46,325H150.05a1.93,1.93,0,0,0-1.94,1.93V330A214.06,214.06,0,0,1,99.58,272.5V157.56a5.56,5.56,0,0,1,5.56-5.56h68a5.56,5.56,0,0,1,5.56,5.56V195a5.56,5.56,0,0,1-5.56,5.56H150.05a1.93,1.93,0,0,0-1.94,1.93v71.06a1.94,1.94,0,0,0,1.94,1.94h87.53c20.69,0,38.15-16.4,38.34-37.11a37,37,0,0,0-4-17.21,3.17,3.17,0,0,1,2.82-4.64h44.48a3.16,3.16,0,0,1,3.11,2.42,86,86,0,0,1-24.56,81.29A85.67,85.67,0,0,1,324.45,361.62Z"/><circle class="cls-2" cx="530.79" cy="208.68" r="55.15"/></g></g></svg>