<svg xmlns="http://www.w3.org/2000/svg" viewBox="0 0 486.36 297.7"><defs><style>.cls-1{fill:#e8e8e8;}.cls-2{fill:#ff8500;}</style></defs><g id="Layer_2" data-name="Layer 2"><g id="Layer_1-2" data-name="Layer 1"><path class="cls-1" d="M282.8.53A14,14,0,0,1,296,9.82q51.15,143.06,102.31,286.1h0l.26.63L321.7,297.7q-41.7-119-83.39-238.09a14,14,0,0,0-13.21-9.37H219s0,0,0,0H120.5v0H99.7A5.72,5.72,0,0,1,94,44.61V6.3A5.72,5.72,0,0,1,99.7.6H106V.53Z"/><path class="cls-2" d="M198.18,148.21a86,86,0,0,0,24.56-81.29,3.16,3.16,0,0,0-3.11-2.42H175.15a3.17,3.17,0,0,0-2.82,4.64,37,37,0,0,1,4,17.21c-.19,20.71-17.65,37.11-38.34,37.11H50.47a1.94,1.94,0,0,1-1.94-1.94V50.46a1.93,1.93,0,0,1,1.94-1.93H73.54A5.56,5.56,0,0,0,79.1,43V5.56A5.56,5.56,0,0,0,73.54,0h-68A5.56,5.56,0,0,0,0,5.56v285.3a5.56,5.56,0,0,0,5.56,5.56h132c43.1,0,79.9-31.83,86.36-73.13a83.43,83.43,0,0,0,1-13.67A85.67,85.67,0,0,0,198.18,148.21ZM138,247.89H50.47A1.94,1.94,0,0,1,48.53,246V174.89A1.93,1.93,0,0,1,50.47,173h88.41a37.5,37.5,0,0,1,37.43,38.91,35.87,35.87,0,0,1-3.75,14.75A38.67,38.67,0,0,1,138,247.89Z"/><path class="cls-1" d="M224.87,209.62a83.43,83.43,0,0,1-1,13.67,215.55,215.55,0,0,1-39.54,3.65q-5.94,0-11.79-.32a35.87,35.87,0,0,0,3.75-14.75A37.5,37.5,0,0,0,138.88,173H50.47a1.93,1.93,0,0,0-1.94,1.93V178A214.06,214.06,0,0,1,0,120.5V5.56A5.56,5.56,0,0,1,5.56,0h68A5.56,5.56,0,0,1,79.1,5.56V43a5.56,5.56,0,0,1-5.56,5.56H50.47a1.93,1.93,0,0,0-1.94,1.93v71.06a1.94,1.94,0,0,0,1.94,1.94H138c20.69,0,38.15-16.4,38.34-37.11a37,37,0,0,0-4-17.21,3.17,3.17,0,0,1,2.82-4.64h44.48a3.16,3.16,0,0,1,3.11,2.42,86,86,0,0,1-24.56,81.29A85.67,85.67,0,0,1,224.87,209.62Z"/><circle class="cls-1" cx="431.21" cy="56.68" r="55.15"/></g></g></svg>