<svg xmlns="http://www.w3.org/2000/svg" viewBox="0 0 2910.23 486.62"><defs><style>.cls-1{font-size:404.51px;fill:#e0dede;font-family:MadaniArabic-Bold;font-weight:700;}.cls-2{fill:#e8e8e8;}.cls-3{fill:#ff8500;}</style></defs><g id="Layer_2" data-name="Layer 2"><g id="Layer_1-2" data-name="Layer 1"><text class="cls-1" transform="translate(531.35 349.89)">BitcoinView</text><path class="cls-2" d="M282.8,54.28A14,14,0,0,1,296,63.56q51.15,143.06,102.31,286.1h0l.26.63-76.85,1.15Q280,232.4,238.31,113.36A14,14,0,0,0,225.1,104H219s0,0,0,0H120.5v0H99.7A5.72,5.72,0,0,1,94,98.35V60a5.72,5.72,0,0,1,5.75-5.7H106v-.06Z"/><path class="cls-3" d="M198.18,202a86,86,0,0,0,24.56-81.28,3.17,3.17,0,0,0-3.11-2.43H175.15a3.17,3.17,0,0,0-2.82,4.64,37,37,0,0,1,4,17.21c-.19,20.71-17.65,37.11-38.34,37.11H50.47a1.94,1.94,0,0,1-1.94-1.94V104.2a1.93,1.93,0,0,1,1.94-1.93H73.54a5.56,5.56,0,0,0,5.56-5.56V59.31a5.56,5.56,0,0,0-5.56-5.57h-68A5.56,5.56,0,0,0,0,59.31V344.6a5.57,5.57,0,0,0,5.56,5.57h132c43.1,0,79.9-31.84,86.36-73.14a83.43,83.43,0,0,0,1-13.67A85.7,85.7,0,0,0,198.18,202ZM138,301.64H50.47a2,2,0,0,1-1.94-1.95V228.63a1.93,1.93,0,0,1,1.94-1.93h88.41a37.5,37.5,0,0,1,37.43,38.91,35.87,35.87,0,0,1-3.75,14.75A38.68,38.68,0,0,1,138,301.64Z"/><path class="cls-2" d="M224.87,263.36a83.43,83.43,0,0,1-1,13.67,215.55,215.55,0,0,1-39.54,3.66c-4,0-7.89-.12-11.79-.33a35.87,35.87,0,0,0,3.75-14.75,37.5,37.5,0,0,0-37.43-38.91H50.47a1.93,1.93,0,0,0-1.94,1.93v3.09A214.06,214.06,0,0,1,0,174.24V59.31a5.56,5.56,0,0,1,5.56-5.57h68a5.56,5.56,0,0,1,5.56,5.57v37.4a5.56,5.56,0,0,1-5.56,5.56H50.47a1.93,1.93,0,0,0-1.94,1.93v71.06a1.94,1.94,0,0,0,1.94,1.94H138c20.69,0,38.15-16.4,38.34-37.11a37,37,0,0,0-4-17.21,3.17,3.17,0,0,1,2.82-4.64h44.48a3.17,3.17,0,0,1,3.11,2.43A86,86,0,0,1,198.18,202,85.7,85.7,0,0,1,224.87,263.36Z"/><circle class="cls-2" cx="431.21" cy="110.42" r="55.15"/></g></g></svg>