<?xml version="1.0" encoding="utf-8"?>
<!-- Generator: Adobe Illustrator 25.0.0, SVG Export Plug-In . SVG Version: 6.00 Build 0)  -->
<svg version="1.1" xmlns="http://www.w3.org/2000/svg" xmlns:xlink="http://www.w3.org/1999/xlink" x="0px" y="0px"
	 viewBox="-15589.398 742.184 4251.97 605.87" enable-background="new -15589.398 742.184 4251.97 605.87" xml:space="preserve">
<g id="Layer_2" display="none">
	<rect x="-15589.398" y="742.184" display="inline" fill="#1D1D1B" width="4251.97" height="1835.894"/>
</g>
<g id="Layer_1">
	<g display="none">
		<g display="inline">
			<path fill-rule="evenodd" clip-rule="evenodd" fill="#727272" d="M-13754.834,1447.237l1138.863,0
				c112.762,0,205.256,92.438,205.256,205.101l0,0c0,112.663-92.494,205.104-205.256,205.104h-1138.863
				c-112.714,0-205.202-92.44-205.202-205.104l0,0C-13960.036,1539.675-13867.548,1447.237-13754.834,1447.237L-13754.834,1447.237z
				"/>
			<path fill="#727272" d="M-12615.971,1871.866h-1138.863c-121.14,0-219.68-98.489-219.68-219.529
				c0-121.037,98.54-219.525,219.68-219.525l1138.863,0c121.14,0,219.727,98.488,219.727,219.525
				C-12396.244,1773.378-12494.831,1871.866-12615.971,1871.866z M-13754.834,1461.66c-105.181,0-190.777,85.549-190.777,190.677
				c0,105.129,85.597,190.68,190.777,190.68h1138.863c105.23,0,190.778-85.551,190.778-190.68s-85.548-190.677-190.778-190.677
				L-13754.834,1461.66z"/>
		</g>
		<g>
			
				<image display="inline" overflow="visible" opacity="0.81" width="501" height="480" xlink:href="5701E99B.png"  transform="matrix(1 0 0 1 -13589.71 1425.0222)">
			</image>
			<g display="inline">
				<g>
					<path fill="#FEFEFE" d="M-13506.854,1505.031c-43.367,41.832-65.026,91-65.026,148.744c0,56.357,21.659,106.915,65.026,147.36
						c44.808,40.445,91.054,60.668,154.646,60.669c63.593,0,111.273-20.224,156.081-60.669
						c41.933-40.445,63.646-89.616,63.646-147.36s-21.713-106.912-63.646-148.745c-44.808-40.445-92.488-62.156-156.081-62.156
						C-13414.312,1442.875-13462.046,1464.585-13506.854,1505.031L-13506.854,1505.031z M-13272.703,1577.198
						c24.534,21.708,36.132,46.244,36.132,75.14c0,30.334-11.598,54.92-36.132,76.529c-24.535,21.71-44.807,31.822-79.504,31.822
						c-34.644,0-54.917-10.112-79.451-31.822c-24.586-21.61-36.185-46.195-36.185-76.53c0-28.896,11.599-53.432,36.185-75.14
						c24.534-21.612,44.808-31.722,79.451-31.722C-13317.51,1545.476-13297.238,1555.586-13272.703,1577.198L-13272.703,1577.198z"
						/>
				</g>
			</g>
		</g>
		<g>
			<polygon display="inline" fill="#F7931A" points="-14254.59,1533.765 -14158.156,1533.765 -14156.842,1874.928 
				-14052.528,1874.928 -14056.471,1533.765 -13960.036,1533.765 -13960.036,1424.85 -14254.59,1424.85 			"/>
		</g>
		<g>
			<path display="inline" fill="#FEFEFE" d="M-13709.521,1442.875h-12.988c-63.594,0-118.51,21.71-164.804,62.155
				c-43.321,40.445-65.028,91-65.028,147.308c0,57.793,21.707,108.352,65.028,148.797c44.806,40.445,101.21,60.669,164.804,60.669
				c33.209,0,62.11-5.85,91.053-17.35c27.462-11.6,50.556-25.97,70.781-46.243l0.424-0.425c2.967-2.969,2.964-7.781-0.006-10.747
				l-61.535-61.456c-2.959-2.955-7.749-2.964-10.719-0.02l-0.252,0.25c-0.12,0.119-0.245,0.236-0.371,0.348
				c-25.924,22.984-54.812,34.527-89.375,34.527c-34.692,0-63.594-10.112-88.175-31.822c-24.586-20.224-36.132-46.193-36.132-75.092
				c0-30.333,11.546-54.87,36.132-76.577c24.581-21.612,53.482-31.722,88.175-31.722c34.558,0,63.44,11.437,87.937,34.462
				c0.129,0.121,0.264,0.238,0.401,0.348l1.772,1.421c3,2.405,7.323,2.19,10.069-0.5l62.538-61.255
				c2.788-2.731,3.054-7.131,0.613-10.178l-1.165-1.455c-0.221-0.276-0.459-0.537-0.715-0.781
				c-34.65-33.045-86.543-60.312-149.901-63.178L-13709.521,1442.875z"/>
		</g>
		<g display="inline">
			<path fill="#5B5B5B" d="M-12344.485,1874.787c18.785,15.864,28.943,36.084,28.943,59.184c0,23.098-10.158,43.32-28.943,59.279
				c-18.786,17.348-36.137,24.486-62.104,24.486c-27.462,0-43.373-7.139-62.158-24.486c-18.786-15.959-28.949-36.183-28.949-59.279
				c0-23.1,10.163-43.319,28.949-59.184c18.785-17.346,34.696-24.581,62.158-24.581
				C-12379.135,1850.206-12363.271,1857.442-12344.485,1874.787L-12344.485,1874.787z"/>
		</g>
		<g display="inline">
			<path fill="#5B5B5B" d="M-12264.985,2039.446c7.239,5.75,11.55,12.988,11.55,21.61c0,8.724-4.311,15.962-11.55,23.197
				c-7.237,5.751-12.985,8.626-23.096,8.626c-10.163,0-15.911-2.875-23.146-8.626c-7.237-7.235-10.111-14.474-10.111-23.197
				c0-8.622,2.874-15.86,10.111-21.61c7.235-7.238,12.983-10.112,23.146-10.112
				C-12277.971,2029.333-12272.223,2032.207-12264.985,2039.446L-12264.985,2039.446z"/>
		</g>
		<rect x="-13099.003" y="1446.503" display="inline" fill="#FEFEFE" width="102.255" height="411.574"/>
		<rect x="-14254.59" y="1551.694" fill="#F7931A" width="77.468" height="323.234"/>
		
			<text transform="matrix(0.9693 0 0 1 -13966.6328 1858.3772)" display="inline" fill="#FFFFFF" font-family="'AzonixRegular'" font-size="588.2188px">C</text>
	</g>
	
		<text transform="matrix(1 0 0 1 -12987.7324 1857.9719)" display="none" fill="#FFFFFF" font-family="'Montserrat-Black'" font-size="586.5148px">N</text>
	
		<rect x="-13459.675" y="1911.184" display="none" fill-rule="evenodd" clip-rule="evenodd" fill="#FFFFFF" width="910.979" height="106.213"/>
	<g display="none">
		<path display="inline" fill="#F7931A" d="M-13681.785,1910.58h15.736l-86.605,130.139l-86.605-130.139l15.753,0.035
			l70.853,106.467L-13681.785,1910.58z"/>
		<path display="inline" fill="#F7931A" d="M-13625.289,1910.58h12.906l0.028,130.139h-12.935V1910.58z"/>
		<path display="inline" fill="#F7931A" d="M-13417.447,1910.58v10.923h-77.045c-35.352,0-64.11,24.289-64.11,54.146
			c0,29.856,28.759,54.146,64.11,54.146h77.045v10.924h-77.045c-42.55,0-77.045-29.133-77.045-65.069s34.495-65.069,77.045-65.069
			H-13417.447z M-13475.648,1967.477c5.34,0,9.677,3.662,9.677,8.173s-4.337,8.173-9.677,8.173c-5.342,0-9.678-3.662-9.678-8.173
			S-13480.99,1967.477-13475.648,1967.477z"/>
		<path display="inline" fill="#F7931A" d="M-13209.623,1910.58h12.963v89.411c0,22.493-21.59,40.728-48.223,40.728
			c-17.872,0-33.424-8.225-41.756-20.416c-8.333,12.191-23.885,20.416-41.757,20.416c-26.632,0-48.223-18.234-48.223-40.728v-89.411
			h12.935v89.411c0,16.434,15.828,29.804,35.288,29.804s35.29-13.373,35.29-29.804v-89.411h12.933v89.411
			c0,16.434,15.828,29.804,35.288,29.804s35.262-13.314,35.262-29.745V1910.58z"/>
		<path display="inline" fill="#F7931A" d="M-13146.215,2024.373c5.344,0,9.677,3.659,9.677,8.173s-4.333,8.173-9.677,8.173
			c-5.345,0-9.678-3.659-9.678-8.173S-13151.56,2024.373-13146.215,2024.373z"/>
		<path display="inline" fill="#F7931A" d="M-12941.712,1975.65c0,35.937-34.495,65.069-77.045,65.069s-77.045-29.133-77.045-65.069
			s34.495-65.069,77.045-65.069S-12941.712,1939.713-12941.712,1975.65z M-12954.646,1975.65c0-29.857-28.759-54.146-64.111-54.146
			c-35.352,0-64.11,24.289-64.11,54.146c0,29.856,28.759,54.146,64.11,54.146
			C-12983.404,2029.795-12954.646,2005.506-12954.646,1975.65z"/>
		<path display="inline" fill="#F7931A" d="M-12766.295,1975.65c11.705,6.248,19.502,17.243,19.502,29.804v35.266h-12.934v-35.265
			c0-13.415-12.915-24.329-28.796-24.343h-99.426v59.607h-12.935v-70.53h112.36c15.881-0.014,28.796-10.921,28.796-24.343
			s-12.931-24.343-28.823-24.343h-112.333v-10.923h112.333c23.062,0,41.757,15.789,41.757,35.266
			C-12746.793,1958.406-12754.59,1969.401-12766.295,1975.65z"/>
		<path display="inline" fill="#F7931A" d="M-12628.92,1910.58h77.045v10.923h-77.045c-35.352,0-64.11,24.289-64.11,54.146
			c0,29.856,28.759,54.146,64.11,54.146h64.111v-48.685h-42.264v-10.922h55.197v70.53h-77.045c-42.55,0-77.045-29.133-77.045-65.069
			S-12671.47,1910.58-12628.92,1910.58z"/>
	</g>
	
		<image display="none" overflow="visible" width="800" height="800" xlink:href="../../../Downloads/Bitcoin.svg.png"  transform="matrix(1 0 0 1 -15053.5479 -135.114)">
	</image>
	
		<text transform="matrix(1.0623 0 0 1 -14516.543 1866.4817)" display="none" fill="#F7931A" font-family="'Ubuntu-Bold'" font-size="622.8174px">IT</text>
	<circle display="none" fill="#FFFFFF" cx="-13336.037" cy="1652.291" r="204.766"/>
	<g id="LkW7Tg.tif" display="none">
		<g display="inline">
			<path fill="#F7931A" d="M-14777.836,1931.822c-0.015-21.377-0.025-42.754-0.05-64.131c-0.007-6.145-0.026-6.168-6.042-6.169
				c-38.479-0.007-76.957-0.001-115.437-0.007c-6.581-0.001-6.67-0.08-6.677-6.607c-0.015-16.033-0.026-32.066,0.009-48.099
				c0.013-5.891,0.378-6.206,6.235-6.238c8.393-0.046,16.774,0.014,25.162-0.733c11.925-1.062,17.913-6.897,18.995-18.858
				c0.647-7.162,0.702-14.329,0.702-21.504c0.004-76.805,0.02-153.61-0.032-230.415c-0.005-6.709-0.338-13.426-0.753-20.125
				c-0.653-10.557-7.814-17.48-18.468-18.564c-8.837-0.899-17.684-0.955-26.529-0.757c-3.992,0.089-5.402-1.358-5.373-5.3
				c0.124-16.795,0.148-33.593-0.015-50.388c-0.042-4.325,1.72-5.396,5.758-5.385c38.632,0.113,77.264,0.068,115.895,0.063
				c6.554-0.001,6.567-0.013,6.57-6.566c0.01-19.392,0.119-38.786-0.074-58.176c-0.046-4.601,1.433-6.058,6.062-5.99
				c16.64,0.246,33.288,0.262,49.928-0.007c4.788-0.078,5.92,1.636,5.877,6.095c-0.192,19.696,0.042,39.396-0.176,59.091
				c-0.05,4.494,1.431,5.784,5.771,5.641c8.693-0.287,17.404-0.078,26.107-0.088c6.144-0.007,6.16-0.017,6.162-5.977
				c0.007-19.087,0-38.174,0.002-57.26c0.001-7.392,0.006-7.396,7.603-7.397c15.727-0.003,31.454-0.005,47.182,0.001
				c6.908,0.002,6.93,0.011,6.934,6.757c0.013,20.308,0.132,40.618-0.089,60.924c-0.05,4.548,1.631,6.126,5.916,6.618
				c28.277,3.248,53.879,12.922,75.407,32.069c10.328,9.186,17.992,20.385,23.218,33.059c11.789,28.594,10.17,56.7-4.81,83.731
				c-10.846,19.572-27.24,33.406-47.129,43.323c-5.8,2.892-11.888,5.146-17.745,8.59c7.31,2.36,14.655,4.613,21.921,7.101
				c16.116,5.52,30.694,13.792,42.543,26.091c15.118,15.695,24.515,34.373,27.395,56.186c5.646,42.776-9.98,76.946-42.78,103.576
				c-22.525,18.29-49.271,27.088-77.748,30.79c-4.585,0.596-6.247,2.041-6.207,6.786c0.19,22.748,0.051,45.499,0.028,68.249
				c-20.461,0-40.923,0-61.384,0c-0.089-1.978-0.254-3.957-0.256-5.935c-0.02-19.538-0.163-39.078,0.095-58.613
				c0.062-4.763-1.489-6.042-6.026-5.848c-7.771,0.332-15.565,0.06-23.351,0.1c-9.607,0.049-8.623-1.018-8.67,8.495
				c-0.101,20.6-0.183,41.201-0.271,61.801C-14736.913,1931.822-14757.374,1931.822-14777.836,1931.822z M-14746.917,1723.897
				c0.054,0,0.106,0,0.16,0c0,12.059-0.146,24.121,0.056,36.177c0.117,7-0.514,14.067,0.969,20.995
				c1.419,6.63,4.317,8.951,10.975,9.522c16.153,1.385,32.344,1.026,48.503,0.661c13.396-0.302,26.78-1.159,39.88-4.749
				c41.886-11.479,55.731-60.062,35.459-91.654c-9.464-14.75-24.673-20.757-41.194-23.809c-9.772-1.805-19.702-1.933-29.609-2.411
				c-20.601-0.992-41.202-0.176-61.8-0.475c-2.454-0.036-3.47,0.872-3.453,3.542
				C-14746.864,1689.096-14746.917,1706.497-14746.917,1723.897z M-14746.733,1551.523c0,15.414,0.157,30.83-0.095,46.239
				c-0.077,4.708,1.539,6.05,6.085,5.934c10.828-0.276,21.671-0.233,32.503-0.055c17.58,0.289,35.063-0.653,52.391-3.705
				c25.338-4.464,41.376-19.191,44.941-42.239c3.44-22.247-6.081-43.142-27.906-51.5c-13.583-5.201-27.997-6.029-42.292-6.405
				c-19.979-0.526-39.981-0.081-59.971-0.307c-4.446-0.05-5.791,1.458-5.734,5.798
				C-14746.611,1520.694-14746.733,1536.109-14746.733,1551.523z"/>
		</g>
	</g>
	<g display="none">
		<g display="inline">
			
				<linearGradient id="SVGID_1_" gradientUnits="userSpaceOnUse" x1="-14319.3154" y1="-1509.1357" x2="-12676.9756" y2="-1509.1357" gradientTransform="matrix(-1 0 0 -1 -26476.5293 142.1332)">
				<stop  offset="0.0708" style="stop-color:#F2F3FB"/>
				<stop  offset="0.2146" style="stop-color:#E0E4F0"/>
				<stop  offset="0.45" style="stop-color:#C9D1E2"/>
				<stop  offset="0.6713" style="stop-color:#BBC5D9"/>
				<stop  offset="0.8625" style="stop-color:#B6C1D6"/>
			</linearGradient>
			<path fill="url(#SVGID_1_)" d="M-12688.281,1890.286h-958.618c-178.616,0-323.414-107.01-323.414-239.016l0,0
				c0-132.006,144.798-239.018,323.414-239.018h958.618c178.617,0,323.415,107.012,323.415,239.018l0,0
				C-12364.866,1783.276-12509.664,1890.286-12688.281,1890.286z"/>
			<circle fill="#FFFFFF" cx="-13657.213" cy="1649.974" r="260.595"/>
		</g>
	</g>
	<g display="none">
		<path display="inline" fill="#FFFFFF" d="M-12448.177,1756.847l-12.259,0.043l-0.035-9.93l12.259-0.043L-12448.177,1756.847z"/>
		<path display="inline" fill="#FFFFFF" d="M-12490.506,1662.199c6.371-0.021,12.221,0.719,17.549,2.221
			c5.328,1.501,9.925,3.663,13.79,6.483c3.866,2.821,6.886,6.224,9.058,10.207c2.172,3.985,3.268,8.448,3.284,13.39
			c0.019,5.117-1.045,9.699-3.188,13.75c-2.145,4.052-5.139,7.484-8.985,10.297c-3.846,2.813-8.427,4.973-13.745,6.477
			c-5.317,1.506-11.161,2.27-17.532,2.291c-6.412,0.023-12.293-0.725-17.642-2.244c-5.35-1.52-9.957-3.68-13.823-6.484
			c-3.865-2.803-6.884-6.205-9.057-10.206c-2.172-4.003-3.267-8.491-3.284-13.468c-0.019-5.081,1.045-9.639,3.189-13.672
			c2.144-4.035,5.139-7.459,8.984-10.271c3.847-2.812,8.438-4.973,13.776-6.478
			C-12502.793,1662.987-12496.918,1662.223-12490.506,1662.199z M-12490.476,1670.666c-5.658,0.02-10.644,0.654-14.955,1.902
			c-4.312,1.248-7.912,2.96-10.796,5.136c-2.884,2.177-5.064,4.737-6.542,7.685c-1.478,2.945-2.211,6.109-2.199,9.49
			c0.012,3.382,0.768,6.54,2.266,9.476c1.499,2.937,3.697,5.483,6.597,7.638c2.898,2.156,6.51,3.844,10.831,5.061
			c4.32,1.219,9.311,1.816,14.969,1.797c5.658-0.021,10.633-0.662,14.924-1.929c4.292-1.266,7.879-2.986,10.764-5.163
			c2.885-2.176,5.055-4.736,6.512-7.684c1.457-2.945,2.179-6.127,2.166-9.543c-0.012-3.381-0.755-6.522-2.233-9.424
			c-1.477-2.9-3.665-5.428-6.564-7.585c-2.9-2.155-6.499-3.842-10.8-5.06
			C-12479.838,1671.244-12484.817,1670.647-12490.476,1670.666z"/>
		<path display="inline" fill="#FFFFFF" d="M-12483.438,1633.698l34.828-0.123l0.029,8.518l-84.115,0.296l-0.063-18.114
			c-0.011-3.062,0.117-5.664,0.382-7.805s0.688-4.102,1.268-5.878c1.575-4.877,4.275-8.61,8.102-11.199
			c3.825-2.589,8.61-3.894,14.352-3.914c3.395-0.012,6.435,0.431,9.12,1.326c2.686,0.897,5.016,2.16,6.991,3.791
			c1.977,1.631,3.597,3.584,4.862,5.861c1.266,2.278,2.196,4.809,2.793,7.594l0.251-0.001l35.887-20.821l0.03,8.518l-34.752,21.653
			L-12483.438,1633.698z M-12523.484,1633.839l30.805-0.108l-0.03-8.414c-0.009-2.613-0.121-4.842-0.338-6.688
			c-0.215-1.845-0.599-3.5-1.149-4.96c-1.1-2.957-2.847-5.233-5.241-6.828c-2.395-1.594-5.52-2.384-9.376-2.371
			c-3.604,0.047-6.504,0.825-8.699,2.33c-2.194,1.506-3.77,3.585-4.725,6.235c-0.456,1.256-0.785,2.756-0.99,4.499
			c-0.203,1.743-0.3,3.956-0.29,6.638L-12523.484,1633.839z"/>
		<path display="inline" fill="#FFFFFF" d="M-12482.99,1528.866l0.056,15.939l-9.241,0.033l-0.086-24.458l40.675-0.143
			c0.464,0.729,0.939,1.799,1.426,3.209c0.487,1.409,0.944,3.02,1.368,4.829c0.426,1.811,0.769,3.751,1.026,5.824
			c0.26,2.072,0.392,4.119,0.398,6.139c0.021,5.993-0.944,11.283-2.897,15.871c-1.954,4.588-4.728,8.439-8.321,11.552
			c-3.594,3.114-7.965,5.481-13.115,7.102c-5.149,1.621-10.888,2.443-17.217,2.465c-6.873,0.024-13.12-0.832-18.743-2.568
			c-5.622-1.735-10.43-4.262-14.424-7.579c-3.992-3.316-7.076-7.332-9.251-12.044c-2.175-4.713-3.272-9.909-3.293-15.588
			c-0.005-1.533,0.062-3.066,0.204-4.6c0.142-1.533,0.346-2.997,0.613-4.392c0.269-1.394,0.588-2.685,0.961-3.871
			s0.768-2.18,1.184-2.983l9.052-0.032c-0.83,2.093-1.523,4.5-2.081,7.219c-0.556,2.72-0.829,5.438-0.819,8.156
			c0.014,3.972,0.751,7.758,2.209,11.358c1.459,3.601,3.66,6.772,6.604,9.514c2.943,2.742,6.629,4.924,11.057,6.546
			s9.617,2.422,15.568,2.401c5.825-0.021,10.852-0.717,15.08-2.091c4.229-1.374,7.721-3.311,10.478-5.81
			c2.759-2.499,4.791-5.524,6.099-9.076c1.308-3.553,1.954-7.5,1.938-11.843c-0.007-2.012-0.14-3.997-0.397-5.956
			c-0.259-1.958-0.621-3.695-1.088-5.212L-12482.99,1528.866z"/>
	</g>
	<g>
		<path fill="#E0DEDE" d="M-14714.01,842.793h158.601c40.13,0,73.412,10.129,99.849,30.388c26.428,20.26,39.65,47.564,39.65,81.905
			c0,32.804-13.123,60.199-39.361,82.194c18.903,9.651,33.952,23.063,45.149,40.229c11.188,17.175,16.786,37.335,16.786,60.489
			c0,37.434-13.603,68.013-40.808,91.745s-62.225,35.598-105.059,35.598h-174.808V842.793z M-14613.871,1004.866l63.092-0.578
			c11.188-0.769,20.16-4.242,26.916-10.419c6.748-6.168,10.13-14.082,10.13-23.732c0-10.799-3.962-19.581-11.866-26.337
			c-7.913-6.747-18.622-10.13-32.125-10.13h-56.146V1004.866z M-14613.871,1169.254h71.196c14.66,0,25.947-3.563,33.862-10.708
			c7.904-7.135,11.865-16.687,11.865-28.651c0-11.956-4.151-21.418-12.445-28.363c-8.303-6.946-19.011-10.419-32.125-10.419h-72.354
			V1169.254z"/>
		<path fill="#E0DEDE" d="M-14352.241,872.892c0-14.272,5.11-26.626,15.339-37.045c10.221-10.419,22.476-15.629,36.757-15.629
			c14.271,0,26.526,5.21,36.756,15.629c10.22,10.418,15.339,22.773,15.339,37.045c0,14.281-5.02,26.436-15.05,36.466
			c-10.419,10.419-22.773,15.629-37.045,15.629c-14.281,0-26.536-5.11-36.757-15.339
			C-14347.131,899.428-14352.241,887.173-14352.241,872.892z M-14347.031,1265.341V946.982h93.771v318.359H-14347.031z"/>
		<path fill="#E0DEDE" d="M-14168.756,946.982l13.892-104.19h76.406v104.19h71.196v82.773h-71.196v94.35
			c0,38.203,16.588,57.304,49.78,57.304c7.325,0,14.471-1.158,21.416-3.473l23.153,83.351
			c-16.984,6.947-36.665,10.419-59.041,10.419c-37.822,0-68.79-11.378-92.902-34.15c-24.121-22.766-36.178-60.39-36.178-112.873
			v-94.929h-41.676v-82.773H-14168.756z"/>
		<path fill="#E0DEDE" d="M-13905.389,990.396c32.025-32.026,70.617-48.043,115.767-48.043c27.006,0,52.285,6.277,75.827,18.812
			c23.533,12.545,43.023,29.43,58.463,50.648l-77.564,51.516c-13.892-16.976-32.804-25.469-56.726-25.469
			c-19.3,0-35.599,6.657-48.912,19.97c-13.312,13.313-19.969,29.43-19.969,48.333c0,19.3,6.656,35.697,19.969,49.2
			c13.313,13.512,29.612,20.26,48.912,20.26c25.469,0,44.95-9.841,58.462-29.521l77.564,52.094
			c-15.05,22.385-34.54,40.138-58.462,53.253c-23.932,13.123-49.78,19.68-77.564,19.68c-45.537,0-84.221-16.108-116.056-48.333
			c-31.836-32.215-47.754-71.097-47.754-116.635C-13953.432,1061.013-13937.424,1022.43-13905.389,990.396z"/>
		<path fill="#E0DEDE" d="M-13576.041,990.396c32.025-32.026,70.617-48.043,115.767-48.043c45.148,0,83.831,16.117,116.056,48.333
			c32.216,32.225,48.333,70.717,48.333,115.477c0,45.538-16.117,84.42-48.333,116.635c-32.225,32.224-70.907,48.333-116.056,48.333
			c-45.538,0-84.221-16.108-116.056-48.333c-31.837-32.215-47.755-71.097-47.755-116.635
			C-13624.085,1061.013-13608.076,1022.43-13576.041,990.396z M-13529.155,1106.162c0,19.3,6.746,35.697,20.259,49.2
			c13.114,13.512,29.321,20.26,48.622,20.26c19.291,0,35.598-6.748,48.911-20.26c13.313-13.503,19.97-29.901,19.97-49.2
			c0-18.903-6.656-35.019-19.97-48.333s-29.62-19.97-48.911-19.97c-19.301,0-35.599,6.657-48.912,19.97
			C-13522.499,1071.143-13529.155,1087.259-13529.155,1106.162z"/>
		<path fill="#E0DEDE" d="M-13254.791,872.892c0-14.272,5.108-26.626,15.338-37.045c10.221-10.419,22.475-15.629,36.756-15.629
			c14.272,0,26.527,5.21,36.757,15.629c10.22,10.418,15.338,22.773,15.338,37.045c0,14.281-5.02,26.436-15.049,36.466
			c-10.419,10.419-22.773,15.629-37.046,15.629c-14.281,0-26.535-5.11-36.756-15.339
			C-13249.683,899.428-13254.791,887.173-13254.791,872.892z M-13249.582,1265.341V946.982h93.771v318.359H-13249.582z"/>
		<path fill="#E0DEDE" d="M-13094.461,1265.341V946.982h85.089l5.788,41.676c20.061-31.637,47.845-47.464,83.353-47.464
			c38.202,0,68.303,13.222,90.299,39.65c21.995,26.436,32.992,67.055,32.992,121.845v162.652h-93.771v-162.652
			c0-22.765-5.309-40.03-15.918-51.805c-10.618-11.767-23.642-17.655-39.071-17.655c-15.438,0-28.462,5.789-39.071,17.365
			c-10.618,11.577-15.918,28.942-15.918,52.095v162.652H-13094.461z"/>
		<path fill="#E0DEDE" d="M-12662.073,842.793l84.511,270.315l83.931-270.315h109.979l-144.709,422.548h-98.98l-145.288-422.548
			H-12662.073z"/>
		<path fill="#E0DEDE" d="M-12359.349,872.892c0-14.272,5.11-26.626,15.34-37.045c10.221-10.419,22.475-15.629,36.756-15.629
			c14.272,0,26.527,5.21,36.757,15.629c10.22,10.418,15.338,22.773,15.338,37.045c0,14.281-5.02,26.436-15.049,36.466
			c-10.419,10.419-22.773,15.629-37.046,15.629c-14.281,0-26.535-5.11-36.756-15.339
			C-12354.238,899.428-12359.349,887.173-12359.349,872.892z M-12354.139,1265.341V946.982h93.771v318.359H-12354.139z"/>
		<path fill="#E0DEDE" d="M-12165.443,990.396c31.636-32.026,70.039-48.043,115.188-48.043c45.527,0,84.12,16.017,115.767,48.043
			c31.636,32.034,47.463,70.617,47.463,115.767c0,9.65-0.776,21.417-2.314,35.309h-223.431
			c4.631,12.735,13.214,23.063,25.759,30.967c12.535,7.915,27.494,11.867,44.86,11.867c27.783,0,49.391-7.715,64.829-23.154
			l74.67,47.465c-15.051,18.911-35.409,34.061-61.067,45.438c-25.668,11.378-51.806,17.075-78.432,17.075
			c-49.78,0-90.787-15.918-123.003-47.754c-32.225-31.835-48.333-70.907-48.333-117.213
			C-12213.487,1061.013-12197.478,1022.43-12165.443,990.396z M-12112.19,1067.959h127.921
			c-3.092-10.799-10.518-19.97-22.284-27.494c-11.776-7.525-26.147-11.288-43.123-11.288c-16.596,0-30.389,3.763-41.386,11.288
			C-12102.062,1047.989-12109.106,1057.16-12112.19,1067.959z"/>
		<path fill="#E0DEDE" d="M-11865.032,946.982h100.138l54.411,173.65l54.41-173.65h94.929l54.409,173.65l54.412-173.65h100.138
			l-108.241,318.359h-91.456l-56.727-168.44l-56.726,168.44h-91.456L-11865.032,946.982z"/>
	</g>
	<path display="none" fill="#1C1C1C" d="M-14952.781,2001.226h339.063c77.837,0,140.937-63.099,140.937-140.936v-339.064
		c0-77.837-63.1-140.936-140.937-140.936h-339.063c-77.837,0-140.937,63.099-140.937,140.936v339.064
		C-15093.718,1938.127-15030.618,2001.226-14952.781,2001.226z"/>
	<g>
		<path fill="#E8E8E8" d="M-15106.152,842.326c8.464,0,16.014,5.319,18.863,13.288c48.802,136.465,97.604,272.929,146.403,409.394
			c0,0.002,0,0.004,0,0.006c0,0-0.002,0.003-0.007,0.004h0.001c0.124,0.3,0.249,0.6,0.373,0.9
			c-36.657,0.548-73.312,1.096-109.97,1.644c-39.774-113.565-79.548-227.131-119.321-340.696
			c-2.813-8.033-10.396-13.411-18.908-13.411h-8.726c0,0.023,0.024,0.023,0.024,0.047h-140.973v0.048h-29.771
			c-4.539,0-8.22-3.651-8.22-8.156v-54.819c0-4.505,3.681-8.156,8.22-8.156h9.079v-0.095
			C-15274.772,842.324-15190.463,842.325-15106.152,842.326z"/>
		<path fill="#E8E8E8" d="M-15081.179,1343.554"/>
	</g>
	<g>
		<path fill="#FF8500" d="M-15227.235,1053.645c23.519-22.43,38.195-54.051,38.195-89.028c0-9.375-1.042-18.518-3.056-27.292
			c-0.463-2.06-2.338-3.472-4.444-3.472h-63.658c-3.426,0-5.579,3.588-4.027,6.643c3.75,7.384,5.833,15.764,5.74,24.63
			c-0.277,29.63-25.255,53.102-54.861,53.102h-125.255c-1.527,0-2.778-1.25-2.778-2.778V913.76c0-1.528,1.251-2.755,2.778-2.755
			h33.01c4.397,0,7.963-3.565,7.963-7.963v-53.519c0-4.398-3.565-7.963-7.963-7.963h-97.27c-4.397,0-7.963,3.565-7.963,7.963
			v408.242c0,4.398,3.565,7.963,7.963,7.963h188.844c61.667,0,114.329-45.556,123.565-104.653c0.995-6.366,1.481-12.917,1.412-19.56
			C-15189.364,1106.979-15203.971,1075.798-15227.235,1053.645z M-15313.416,1196.284h-125.186c-1.527,0-2.778-1.25-2.778-2.778
			v-101.69c0-1.528,1.251-2.755,2.778-2.755h126.505c30.255,0,54.723,25.185,53.565,55.671c-0.278,7.57-2.176,14.699-5.371,21.111
			C-15272.837,1183.97-15291.98,1196.284-15313.416,1196.284z"/>
		<path fill="#E8E8E8" d="M-15189.04,1141.516c0.069,6.644-0.417,13.194-1.412,19.56c-18.334,3.426-37.246,5.231-56.574,5.231
			c-5.672,0-11.297-0.162-16.876-0.463c3.195-6.412,5.093-13.542,5.371-21.111c1.157-30.486-23.311-55.671-53.565-55.671h-126.505
			c-1.527,0-2.778,1.227-2.778,2.755v4.421c-27.73-23.032-51.319-50.88-69.444-82.246V849.524c0-4.398,3.565-7.963,7.963-7.963
			h97.27c4.397,0,7.963,3.565,7.963,7.963v53.519c0,4.398-3.565,7.963-7.963,7.963h-33.01c-1.527,0-2.778,1.227-2.778,2.755v101.69
			c0,1.528,1.251,2.778,2.778,2.778h125.255c29.606,0,54.584-23.472,54.861-53.102c0.093-8.866-1.99-17.246-5.74-24.63
			c-1.552-3.056,0.602-6.643,4.027-6.643h63.658c2.106,0,3.981,1.412,4.444,3.472c2.014,8.773,3.056,17.917,3.056,27.292
			c0,34.977-14.677,66.598-38.195,89.028C-15203.971,1075.798-15189.364,1106.979-15189.04,1141.516z"/>
	</g>
	<circle fill="#E8E8E8" cx="-14893.783" cy="922.669" r="78.916"/>
	<circle display="none" fill="#FF7900" cx="-14968.675" cy="1441.397" r="13.787"/>
	<circle display="none" fill="#FF7900" cx="-14931.42" cy="1441.226" r="13.787"/>
	<circle display="none" fill="#1D1D1B" cx="-14968.037" cy="1780.971" r="13.787"/>
	<circle display="none" fill="#FF7900" cx="-14931.292" cy="1781.992" r="13.787"/>
	<g display="none">
		<path display="inline" fill="#E0DEDE" d="M-13869.497,1207.118h110.835c28.044,0,51.303,7.079,69.777,21.236
			c18.469,14.158,27.709,33.239,27.709,57.238c0,22.924-9.171,42.069-27.507,57.44c13.21,6.744,23.728,16.117,31.552,28.113
			c7.818,12.002,11.73,26.091,11.73,42.271c0,26.16-9.506,47.529-28.518,64.114s-43.484,24.877-73.418,24.877h-122.161V1207.118z
			 M-13799.518,1320.38l44.092-0.404c7.818-0.537,14.088-2.964,18.809-7.281c4.716-4.311,7.08-9.841,7.08-16.584
			c0-7.547-2.77-13.684-8.293-18.405c-5.53-4.715-13.014-7.079-22.45-7.079h-39.237V1320.38z M-13799.518,1435.26h49.754
			c10.246,0,18.134-2.49,23.664-7.483c5.524-4.986,8.293-11.661,8.293-20.022c0-8.355-2.901-14.967-8.697-19.821
			c-5.803-4.854-13.285-7.281-22.45-7.281h-50.563V1435.26z"/>
		<path display="inline" fill="#E0DEDE" d="M-13616.682,1228.152c0-9.974,3.57-18.607,10.719-25.888
			c7.143-7.281,15.707-10.922,25.688-10.922c9.973,0,18.537,3.641,25.686,10.922c7.143,7.281,10.719,15.915,10.719,25.888
			c0,9.98-3.508,18.475-10.517,25.484c-7.281,7.281-15.915,10.922-25.888,10.922c-9.98,0-18.545-3.571-25.688-10.719
			C-13613.111,1246.697-13616.682,1238.132-13616.682,1228.152z M-13613.041,1502.408v-222.479h65.53v222.479H-13613.041z"/>
		<path display="inline" fill="#E0DEDE" d="M-13488.457,1279.929l9.709-72.811h53.395v72.811h49.754v57.845h-49.754v65.935
			c0,26.697,11.592,40.046,34.787,40.046c5.12,0,10.113-0.81,14.967-2.427l16.181,58.248c-11.87,4.854-25.623,7.281-41.26,7.281
			c-26.432,0-48.073-7.951-64.923-23.865c-16.857-15.909-25.282-42.202-25.282-78.879v-66.339h-29.124v-57.845H-13488.457z"/>
		<path display="inline" fill="#E0DEDE" d="M-13304.407,1310.267c22.38-22.381,49.35-33.574,80.901-33.574
			c18.872,0,36.538,4.386,52.99,13.146c16.445,8.767,30.066,20.566,40.855,35.395l-54.204,36.001
			c-9.708-11.863-22.925-17.798-39.642-17.798c-13.488,0-24.878,4.652-34.182,13.956c-9.303,9.304-13.955,20.566-13.955,33.776
			c0,13.487,4.652,24.946,13.955,34.383c9.304,9.442,20.693,14.158,34.182,14.158c17.798,0,31.412-6.877,40.854-20.63l54.204,36.405
			c-10.517,15.644-24.138,28.05-40.854,37.215c-16.725,9.171-34.788,13.753-54.204,13.753c-31.823,0-58.856-11.257-81.104-33.776
			c-22.248-22.513-33.372-49.685-33.372-81.508C-13337.981,1359.617-13326.795,1332.654-13304.407,1310.267z"/>
		<path display="inline" fill="#E0DEDE" d="M-13074.249,1310.267c22.38-22.381,49.35-33.574,80.901-33.574
			c31.551,0,58.584,11.263,81.104,33.776c22.513,22.52,33.776,49.419,33.776,80.699c0,31.823-11.264,58.995-33.776,81.508
			c-22.52,22.52-49.553,33.776-81.104,33.776c-31.823,0-58.856-11.257-81.104-33.776c-22.248-22.513-33.372-49.685-33.372-81.508
			C-13107.823,1359.617-13096.637,1332.654-13074.249,1310.267z M-13041.484,1391.169c0,13.487,4.715,24.946,14.158,34.383
			c9.164,9.442,20.49,14.158,33.979,14.158c13.481,0,24.877-4.716,34.181-14.158c9.304-9.437,13.955-20.896,13.955-34.383
			c0-13.21-4.651-24.473-13.955-33.776s-20.699-13.956-34.181-13.956c-13.488,0-24.878,4.652-34.182,13.956
			C-13036.832,1366.696-13041.484,1377.959-13041.484,1391.169z"/>
		<path display="inline" fill="#E0DEDE" d="M-12849.75,1228.152c0-9.974,3.57-18.607,10.719-25.888
			c7.143-7.281,15.706-10.922,25.687-10.922c9.974,0,18.538,3.641,25.687,10.922c7.142,7.281,10.719,15.915,10.719,25.888
			c0,9.98-3.508,18.475-10.517,25.484c-7.281,7.281-15.915,10.922-25.889,10.922c-9.98,0-18.544-3.571-25.687-10.719
			C-12846.18,1246.697-12849.75,1238.132-12849.75,1228.152z M-12846.109,1502.408v-222.479h65.529v222.479H-12846.109z"/>
		<path display="inline" fill="#E0DEDE" d="M-12737.706,1502.408v-222.479h59.463l4.045,29.125
			c14.019-22.109,33.436-33.169,58.249-33.169c26.697,0,47.732,9.24,63.104,27.708c15.371,18.475,23.057,46.86,23.057,85.149
			v113.667h-65.53v-113.667c0-15.909-3.71-27.974-11.124-36.203c-7.42-8.223-16.521-12.338-27.304-12.338
			c-10.789,0-19.891,4.045-27.305,12.135c-7.42,8.09-11.124,20.226-11.124,36.406v113.667H-12737.706z"/>
		<path display="inline" fill="#E0DEDE" d="M-12435.54,1207.118l59.059,188.905l58.653-188.905h76.856l-101.127,295.29h-69.171
			l-101.531-295.29H-12435.54z"/>
		<path display="inline" fill="#E0DEDE" d="M-12223.986,1228.152c0-9.974,3.571-18.607,10.72-25.888
			c7.143-7.281,15.706-10.922,25.687-10.922c9.974,0,18.538,3.641,25.687,10.922c7.142,7.281,10.719,15.915,10.719,25.888
			c0,9.98-3.508,18.475-10.517,25.484c-7.281,7.281-15.915,10.922-25.889,10.922c-9.98,0-18.544-3.571-25.687-10.719
			C-12220.415,1246.697-12223.986,1238.132-12223.986,1228.152z M-12220.346,1502.408v-222.479h65.53v222.479H-12220.346z"/>
		<path display="inline" fill="#E0DEDE" d="M-12088.479,1310.267c22.108-22.381,48.945-33.574,80.497-33.574
			c31.816,0,58.786,11.193,80.901,33.574c22.108,22.387,33.169,49.35,33.169,80.901c0,6.744-0.543,14.967-1.617,24.675h-156.141
			c3.236,8.899,9.234,16.117,18.001,21.641c8.76,5.531,19.214,8.293,31.35,8.293c19.416,0,34.516-5.392,45.305-16.181l52.182,33.17
			c-10.518,13.216-24.745,23.803-42.676,31.754c-17.938,7.951-36.203,11.933-54.811,11.933c-34.788,0-63.444-11.124-85.958-33.372
			c-22.52-22.247-33.776-49.552-33.776-81.912C-12122.054,1359.617-12110.866,1332.654-12088.479,1310.267z M-12051.265,1364.471
			h89.396c-2.161-7.546-7.351-13.956-15.573-19.214c-8.229-5.259-18.272-7.888-30.136-7.888c-11.598,0-21.236,2.629-28.922,7.888
			C-12044.187,1350.515-12049.109,1356.925-12051.265,1364.471z"/>
		<path display="inline" fill="#E0DEDE" d="M-11878.543,1279.929h69.979l38.024,121.352l38.023-121.352h66.339l38.023,121.352
			l38.024-121.352h69.979l-75.643,222.479h-63.912l-39.643-117.711l-39.642,117.711h-63.912L-11878.543,1279.929z"/>
	</g>
</g>
</svg>
